HIERARCHY
ROOT Hips
{
  OFFSET -2.07705 96.3251 55.6806
  CHANNELS 6 Xposition Yposition Zposition Zrotation Xrotation Yrotation
  JOINT Chest
  {
    OFFSET 0 10.5691 -1.07959
    CHANNELS 6 Xposition Yposition Zposition Zrotation Xrotation Yrotation
    JOINT Chest2
    {
      OFFSET 0 11.6675 1.08235
      CHANNELS 6 Xposition Yposition Zposition Zrotation Xrotation Yrotation
      JOINT Chest3
      {
        OFFSET 0 10.5876 0
        CHANNELS 6 Xposition Yposition Zposition Zrotation Xrotation Yrotation
        JOINT Chest4
        {
          OFFSET 0 10.5876 0
          CHANNELS 6 Xposition Yposition Zposition Zrotation Xrotation Yrotation
          JOINT Neck
          {
            OFFSET 0 14.88 -9.05173e-005
            CHANNELS 6 Xposition Yposition Zposition Zrotation Xrotation Yrotation
            JOINT Head
            {
              OFFSET 0 9.61472 2.16553
              CHANNELS 6 Xposition Yposition Zposition Zrotation Xrotation Yrotation
              End Site
              {
                OFFSET 0 0 0
              }
            }
          }
          JOINT RightCollar
          {
            OFFSET -3.23953 8.30385 0
            CHANNELS 6 Xposition Yposition Zposition Zrotation Xrotation Yrotation
            JOINT RightShoulder
            {
              OFFSET -15.1725 0 0
              CHANNELS 6 Xposition Yposition Zposition Zrotation Xrotation Yrotation
              JOINT RightElbow
              {
                OFFSET -32.4113 0 0
                CHANNELS 6 Xposition Yposition Zposition Zrotation Xrotation Yrotation
                JOINT RightWrist
                {
                  OFFSET -26.4919 0 1.0813
                  CHANNELS 6 Xposition Yposition Zposition Zrotation Xrotation Yrotation
                  End Site
                  {
                    OFFSET 0 0 0
                  }
                }
              }
            }
          }
          JOINT LeftCollar
          {
            OFFSET 3.23953 8.30385 0
            CHANNELS 6 Xposition Yposition Zposition Zrotation Xrotation Yrotation
            JOINT LeftShoulder
            {
              OFFSET 15.1725 0 0
              CHANNELS 6 Xposition Yposition Zposition Zrotation Xrotation Yrotation
              JOINT LeftElbow
              {
                OFFSET 32.4113 0 0
                CHANNELS 6 Xposition Yposition Zposition Zrotation Xrotation Yrotation
                JOINT LeftWrist
                {
                  OFFSET 26.4919 0 1.0813
                  CHANNELS 6 Xposition Yposition Zposition Zrotation Xrotation Yrotation
                  End Site
                  {
                    OFFSET 0 0 0
                  }
                }
              }
            }
          }
        }
      }
    }
  }
  JOINT RightHip
  {
    OFFSET -8.63673 0.00547028 0
    CHANNELS 6 Xposition Yposition Zposition Zrotation Xrotation Yrotation
    JOINT RightKnee
    {
      OFFSET 0 -44.4933 -2.13952
      CHANNELS 6 Xposition Yposition Zposition Zrotation Xrotation Yrotation
      JOINT RightAnkle
      {
        OFFSET 0 -43.4407 -3.5405
        CHANNELS 6 Xposition Yposition Zposition Zrotation Xrotation Yrotation
        JOINT RightToe
        {
          OFFSET 0 -8.39271 19.1252
          CHANNELS 6 Xposition Yposition Zposition Zrotation Xrotation Yrotation
          End Site
          {
            OFFSET 0 0 0
          }
        }
      }
    }
  }
  JOINT LeftHip
  {
    OFFSET 8.63673 0.00547028 0
    CHANNELS 6 Xposition Yposition Zposition Zrotation Xrotation Yrotation
    JOINT LeftKnee
    {
      OFFSET 0 -44.4932 -2.13962
      CHANNELS 6 Xposition Yposition Zposition Zrotation Xrotation Yrotation
      JOINT LeftAnkle
      {
        OFFSET 0 -43.4408 -3.54051
        CHANNELS 6 Xposition Yposition Zposition Zrotation Xrotation Yrotation
        JOINT LeftToe
        {
          OFFSET 0 -8.3927 19.1252
          CHANNELS 6 Xposition Yposition Zposition Zrotation Xrotation Yrotation
          End Site
          {
            OFFSET 0 0 0
          }
        }
      }
    }
  }
}
MOTION
Frames:	7
Frame Time:	0.0333333
-209.462 94.0229 60.1717 -10.2774 2.99972 88.6343 0 10.5691 -1.07959 0.207363 2.25161 -1.66062 -1.42109e-014 11.6675 1.08235 0.4805 4.49622 -3.3332 0 10.5876 -2.84217e-014 0.48049 4.49621 -3.33318 1.42109e-014 10.5876 0 0.480501 4.49621 -3.3332 0 14.88 -0.000684564 -8.9029 -19.3284 1.58283 1.42109e-014 9.61463 2.16553 5.36461 3.8783 -1.02928 -3.23953 8.30385 -2.84217e-014 -7.95139e-016 -1.07344e-014 -0 -15.1725 -4.76837e-006 2.84217e-014 61.2725 23.9355 0.24727 -32.4113 5.06627e-006 1.36619e-006 -5.08487 -14.3256 76.5486 -26.4919 -8.83504e-007 1.0813 15.5101 0.496337 1.90927 3.23953 8.30385 0 -7.95139e-016 -1.07344e-014 -0 15.1725 -4.76837e-006 -2.84217e-014 -54.2444 28.0996 -23.7311 32.4113 -2.17716e-006 2.18426e-007 -3.39213 -11.3562 -107.514 26.4919 -6.03762e-007 1.0813 -20.6932 -3.64404 21.4874 -8.63673 0.00547028 0 -2.90335 -39.5633 -10.668 -2.52325e-005 -44.4933 -2.13961 7.94888 28.732 0.202601 5.03153e-007 -43.4407 -3.5405 -1.14601 1.4168 1.30668 4.34188e-007 -8.39271 19.1252 -12.1951 -26.4262 -5.58185 8.63673 0.00547028 0 -0.312878 -10.8004 4.40831 -2.6112e-006 -44.4932 -2.13963 -2.47204 32.7781 -5.08008 -1.12983e-007 -43.4408 -3.54051 -2.92086 1.25039 -1.80655 1.87432e-007 -8.3927 19.1252 13.0532 -26.3473 -9.03526 
-203.431 94.377 60.1694 -9.86019 4.07188 88.6667 7.10543e-015 10.5691 -1.07959 0.0647932 2.13753 -1.64831 0 11.6675 1.08235 0.191313 4.27223 -3.30251 0 10.5876 0 0.191314 4.27223 -3.30249 0 10.5876 0 0.191316 4.27223 -3.30251 0 14.88 -0.000689729 -10.7904 -18.8601 1.99405 0 9.61463 2.16553 8.47272 4.06908 -1.74903 -3.23953 8.30385 2.84217e-014 2.20695e-032 3.97569e-016 -3.18055e-015 -15.1725 -4.76837e-006 0 62.0654 23.4317 -1.38508 -32.4113 5.06627e-006 1.36619e-006 -4.50698 -14.4124 78.0709 -26.4919 -8.83504e-007 1.0813 15.79 0.376029 0.971411 3.23953 8.30385 2.84217e-014 2.20695e-032 3.97569e-016 -3.18055e-015 15.1725 -4.76837e-006 -2.84217e-014 -54.7894 29.2561 -21.2412 32.4113 -2.17716e-006 2.18426e-007 -1.48562 -12.6341 -108.32 26.4919 -6.03762e-007 1.0813 -19.7537 -3.17328 19.8188 -8.63673 0.00547028 0 -0.339483 -38.463 -8.41723 -2.52325e-005 -44.4933 -2.13961 6.89781 20.3942 -1.58685 5.03153e-007 -43.4407 -3.5405 9.02516 3.72702 4.08821 4.34188e-007 -8.39271 19.1252 -9.81975 -22.4301 -0.513604 8.63673 0.00547028 -2.84217e-014 1.93975 -10.846 6.92756 -2.6112e-006 -44.4932 -2.13963 -2.61257 35.889 0.196037 -1.12983e-007 -43.4408 -3.54051 -20.2341 9.91333 -6.3098 1.87432e-007 -8.3927 19.1252 4.92444 1.29501 -16.0491 
-197.088 93.6304 60.3164 -8.44788 5.22639 89.3395 7.10543e-015 10.5691 -1.07959 -0.156224 2.10471 -1.57793 0 11.6675 1.08235 -0.254604 4.2129 -3.15326 -1.42109e-014 10.5876 2.84217e-014 -0.25461 4.21291 -3.15325 0 10.5876 0 -0.254596 4.2129 -3.15329 0 14.88 -0.000694868 -12.7544 -18.0924 1.56539 0 9.61463 2.16553 11.7805 5.36618 -3.45879 -3.23953 8.30385 0 -3.86217e-032 1.39149e-015 1.59028e-015 -15.1725 -4.76837e-006 2.84217e-014 62.606 23.4622 -2.19022 -32.4113 5.06627e-006 1.36619e-006 -4.64684 -14.7956 79.1815 -26.4919 -8.83504e-007 1.0813 16.9553 0.428781 1.12569 3.23953 8.30385 2.84217e-014 -3.86217e-032 1.39149e-015 1.59028e-015 15.1725 -4.76837e-006 2.84217e-014 -55.4468 29.2904 -18.4381 32.4113 -2.17716e-006 2.18426e-007 0.903259 -13.7501 -108.47 26.4919 -6.03762e-007 1.0813 -20.9285 -2.77799 16.6922 -8.63673 0.00547028 -2.84217e-014 0.273648 -37.141 -9.45611 -2.52325e-005 -44.4933 -2.13961 7.04817 20.2875 -4.84282 5.03153e-007 -43.4407 -3.5405 17.8711 8.26354 2.906 4.34188e-007 -8.39271 19.1252 -6.51327 -14.861 6.1179 8.63673 0.00547028 2.84217e-014 4.41506 -11.8177 8.84422 -2.6112e-006 -44.4932 -2.13963 -1.62348 42.2007 -0.266659 -1.12983e-007 -43.4408 -3.54051 -32.0681 16.6818 -7.26967 1.87432e-007 -8.3927 19.1252 -34.3449 61.1558 5.06454 
-190.444 91.9806 60.5184 -6.23052 6.45487 90.5372 0 10.5691 -1.07959 -0.387215 2.12636 -1.44788 1.42109e-014 11.6675 1.08235 -0.721274 4.26178 -2.88434 0 10.5876 0 -0.721273 4.26178 -2.88434 0 10.5876 0 -0.721273 4.26178 -2.88435 0 14.88 -0.000699982 -13.5839 -15.7715 0.786804 -1.42109e-014 9.61463 2.16553 12.6926 5.09539 -4.79233 -3.23953 8.30385 0 -7.95139e-016 -1.98785e-015 -0 -15.1725 -4.76837e-006 0 62.3516 24.2769 -2.29898 -32.4113 5.06627e-006 1.36619e-006 -4.12206 -15.7492 81.5167 -26.4919 -8.83504e-007 1.0813 15.2564 0.0609897 -1.26776 3.23953 8.30385 2.84217e-014 -7.95139e-016 -1.98785e-015 -0 15.1725 -4.76837e-006 0 -55.8433 27.5617 -16.4432 32.4113 -2.17716e-006 2.18426e-007 1.29452 -13.5657 -109.278 26.4919 -6.03762e-007 1.0813 -22.6475 -2.81584 15.7195 -8.63673 0.00547028 -2.84217e-014 0.661222 -34.8223 -13.3214 -2.52325e-005 -44.4933 -2.13961 5.92309 25.4893 -3.06133 5.03153e-007 -43.4407 -3.5405 18.2243 7.41227 3.32544 4.34188e-007 -8.39271 19.1252 -1.34215 0.497022 8.42291 8.63673 0.00547028 -2.84217e-014 5.98939 -14.431 7.05733 -2.6112e-006 -44.4932 -2.13963 -2.33407 52.8676 -3.31637 -1.12983e-007 -43.4408 -3.54051 -27.7803 14.3065 -6.01555 1.87432e-007 -8.3927 19.1252 -16.8191 50.7908 -10.7519 
-183.879 89.6339 60.8664 -3.96295 7.5032 92.061 7.10543e-015 10.5691 -1.07959 -0.57438 2.19071 -1.23761 0 11.6675 1.08235 -1.10243 4.3932 -2.45584 -7.10543e-015 10.5876 2.84217e-014 -1.10243 4.3932 -2.45583 0 10.5876 0 -1.10243 4.3932 -2.45581 1.42109e-014 14.88 -0.000705071 -15.5392 -13.0023 0.0551182 0 9.61463 2.16553 15.2211 3.04295 -6.59935 -3.23953 8.30385 0 -4.0001e-032 -1.44119e-015 -1.59028e-015 -15.1725 -4.76837e-006 -2.84217e-014 60.6883 23.3778 -0.823253 -32.4113 5.06627e-006 1.36619e-006 -2.90899 -15.7888 83.606 -26.4919 -8.83504e-007 1.0813 14.6739 -0.234951 -3.52898 3.23953 8.30385 2.84217e-014 -4.0001e-032 -1.44119e-015 -1.59028e-015 15.1725 -4.76837e-006 0 -55.3933 24.5212 -15.5997 32.4113 -2.17716e-006 2.18426e-007 0.874988 -12.6065 -109.151 26.4919 -6.03762e-007 1.0813 -22.9451 -2.73313 15.1366 -8.63673 0.00547028 2.84217e-014 1.72431 -33.1967 -13.9136 -2.52325e-005 -44.4933 -2.13961 5.27305 35.008 -0.777311 5.03153e-007 -43.4407 -3.5405 -1.65523 -2.511 2.89229 4.34188e-007 -8.39271 19.1252 -2.47708 -5.32411 1.6693 8.63673 0.00547028 2.84217e-014 7.30255 -18.3576 4.05082 -2.6112e-006 -44.4932 -2.13963 -6.6538 63.7575 -3.07833 -1.12983e-007 -43.4408 -3.54051 -12.2447 7.81558 -1.22502 1.87432e-007 -8.3927 19.1252 -4.0569 19.3764 -14.6522 
-178.03 87.4211 61.2062 -2.07294 8.32235 92.6665 0 10.5691 -1.07959 -0.597076 2.45835 -0.802575 7.10543e-015 11.6675 1.08235 -1.16087 4.92489 -1.5818 7.10543e-015 10.5876 -2.84217e-014 -1.16087 4.92489 -1.58182 0 10.5876 -2.84217e-014 -1.16087 4.92489 -1.58181 0 14.88 -0.000710134 -16.4741 -14.2167 -1.80745 0 9.61463 2.16553 15.0074 3.0742 -8.29472 -3.23953 8.30385 -2.84217e-014 -1.59028e-015 2.54693e-015 -0 -15.1725 -4.76837e-006 -2.84217e-014 57.0794 19.6059 3.82048 -32.4113 5.06627e-006 1.36619e-006 -3.17536 -14.2113 81.9109 -26.4919 -8.83504e-007 1.0813 12.849 -0.0135731 -1.86403 3.23953 8.30385 -5.68434e-014 -1.59028e-015 2.54693e-015 -0 15.1725 -4.76837e-006 -2.84217e-014 -56.5238 18.43 -16.4224 32.4113 -2.17716e-006 2.18426e-007 -2.34354 -9.27702 -107.903 26.4919 -6.03762e-007 1.0813 -22.3879 -2.97184 16.6617 -8.63673 0.00547028 0 3.64299 -31.1981 -11.8297 -2.52325e-005 -44.4933 -2.13961 3.09652 41.7042 2.07908 5.03153e-007 -43.4407 -3.5405 -14.9401 -5.95125 -1.01525 4.34188e-007 -8.39271 19.1252 -6.22208 -14.5926 -0.07037 8.63673 0.00547028 -2.84217e-014 8.3504 -23.875 2.57864 -2.6112e-006 -44.4932 -2.13963 -9.50536 71.4862 -1.81119 -1.12983e-007 -43.4408 -3.54051 -3.62459 5.18591 2.07365 1.87432e-007 -8.3927 19.1252 -4.29701 10.0356 -1.86332 
-172.725 85.8148 61.5696 -0.353917 7.87105 92.5423 0 10.5691 -1.07959 -0.486152 2.96563 -0.410266 0 11.6675 1.08235 -0.953084 5.93451 -0.796792 0 10.5876 0 -0.953079 5.93451 -0.796818 7.10543e-015 10.5876 0 -0.953085 5.9345 -0.796802 -7.10543e-015 14.88 -0.000715172 -16.77 -19.032 -3.75231 0 9.61463 2.16553 14.4572 5.09848 -9.48086 -3.23953 8.30385 0 -7.95139e-016 -1.97542e-015 -1.98785e-016 -15.1725 -4.76837e-006 0 52.8285 14.1912 12.064 -32.4113 5.06627e-006 1.36619e-006 -2.2069 -11.2325 79.0787 -26.4919 -8.83504e-007 1.0813 10.1164 0.0790628 -0.826676 3.23953 8.30385 0 -7.95139e-016 -1.97542e-015 -1.98785e-016 15.1725 -4.76837e-006 -2.84217e-014 -59.5938 10.0737 -16.8243 32.4113 -2.17716e-006 2.18426e-007 -7.02134 -5.11776 -105.192 26.4919 -6.03762e-007 1.0813 -21.2621 -3.28317 19.1164 -8.63673 0.00547028 -2.84217e-014 4.64596 -28.3097 -10.5842 -2.52325e-005 -44.4933 -2.13961 4.85119 46.1219 0.79777 5.03153e-007 -43.4407 -3.5405 -21.4555 -6.73114 -2.94122 4.34188e-007 -8.39271 19.1252 -9.19768 -20.8339 -3.63284 8.63673 0.00547028 2.84217e-014 8.94977 -30.0527 1.81054 -2.6112e-006 -44.4932 -2.13963 -3.21472 75.2249 -5.27436 -1.12983e-007 -43.4408 -3.54051 -0.101952 3.80122 2.87639 1.87432e-007 -8.3927 19.1252 -3.19143 7.15811 -1.30204 
